<svg xmlns:dc="http://purl.org/dc/elements/1.1/" xmlns:cc="http://creativecommons.org/ns#" xmlns:rdf="http://www.w3.org/1999/02/22-rdf-syntax-ns#" xmlns:svg="http://www.w3.org/2000/svg" xmlns="http://www.w3.org/2000/svg" xmlns:sodipodi="http://sodipodi.sourceforge.net/DTD/sodipodi-0.dtd" xmlns:inkscape="http://www.inkscape.org/namespaces/inkscape" viewBox="0 0 25.399999 31.75000125" version="1.1" x="0px" y="0px"><g transform="translate(0,-271.59998)"><path style="color:#000000;font-style:normal;font-variant:normal;font-weight:normal;font-stretch:normal;font-size:medium;line-height:normal;font-family:sans-serif;font-variant-ligatures:normal;font-variant-position:normal;font-variant-caps:normal;font-variant-numeric:normal;font-variant-alternates:normal;font-feature-settings:normal;text-indent:0;text-align:start;text-decoration:none;text-decoration-line:none;text-decoration-style:solid;text-decoration-color:#000000;letter-spacing:normal;word-spacing:normal;text-transform:none;writing-mode:lr-tb;direction:ltr;text-orientation:mixed;dominant-baseline:auto;baseline-shift:baseline;text-anchor:start;white-space:normal;shape-padding:0;clip-rule:nonzero;display:inline;overflow:visible;visibility:visible;opacity:1;isolation:auto;mix-blend-mode:normal;color-interpolation:sRGB;color-interpolation-filters:linearRGB;solid-color:#000000;solid-opacity:1;vector-effect:none;fill:#000000;fill-opacity:1;fill-rule:nonzero;stroke:none;stroke-width:1.05833328;stroke-linecap:round;stroke-linejoin:round;stroke-miterlimit:4;stroke-dasharray:none;stroke-dashoffset:0;stroke-opacity:1;paint-order:stroke fill markers;color-rendering:auto;image-rendering:auto;shape-rendering:auto;text-rendering:auto;enable-background:accumulate" d="m 17.474127,276.89003 c -0.61439,-0.0212 -0.7649,0.84588 -0.179317,1.03301 l 1.226282,0.41031 v 1.47071 h -6.87865 v -0.79478 h 0.527099 c 0.7059,0 0.7059,-1.05885 0,-1.05885 h -2.115116 c -0.7058997,0 -0.7058997,1.05885 0,1.05885 h 0.529167 l 0.0021,2.42362 -2.2505089,2.25051 c -0.766183,-0.60495 -1.7302411,-0.96945 -2.7786417,-0.96945 -2.4778628,0 -4.4979166,2.02057 -4.4979165,4.49843 0,2.47786 2.0200537,4.49792 4.4979165,4.49792 2.2984106,0 4.1999911,-1.73943 4.4638106,-3.96875 h 1.092956 c 0.183337,-3.5e-4 0.353432,-0.0956 0.449585,-0.25166 0.763777,-1.14237 1.922042,-2.49071 3.249414,-3.53364 1.194936,-0.93888 2.515271,-1.53892 3.79305,-1.66966 l 0.0832,0.58394 c -1.920201,0.51253 -3.342948,2.26371 -3.342948,4.34185 0,2.47786 2.020054,4.49792 4.497917,4.49792 2.477862,0 4.497916,-2.02006 4.497916,-4.49792 0,-2.47786 -2.020054,-4.49843 -4.497916,-4.49843 -0.0361,0 -0.07107,0.004 -0.106971,0.005 l -0.16278,-1.13998 0.0062,-3.62872 c -3.26e-4,-0.22807 -0.146721,-0.43027 -0.363286,-0.50178 l -1.588016,-0.52969 c -0.04978,-0.0173 -0.101855,-0.027 -0.154513,-0.0289 z m -5.831685,3.97081 h 6.87865 v 0.29353 c -1.570563,0.15067 -3.063283,0.94866 -4.363041,1.9699 -0.954893,0.75027 -1.807398,1.62519 -2.515609,2.48925 z m -1.05885,2.07016 v 3.75171 h -0.563273 c -0.099847,-0.84372 -0.4345996,-1.61612 -0.9368941,-2.25154 z m -5.0270836,0.84181 c 0.7605954,0 1.4595896,0.24679 2.0277834,0.66146 l -2.4029543,2.40295 c -0.3352742,0.33365 -0.09783,0.90601 0.3751709,0.90434 h 3.3946248 c -0.2537357,1.65189 -1.6693938,2.9099 -3.3946248,2.9099 -1.9058971,0 -3.4395832,-1.53317 -3.4395832,-3.43907 0,-1.9059 1.5336861,-3.43958 3.4395832,-3.43958 z m 14.3309086,0.002 c 1.885258,0.0236 3.395658,1.54644 3.395658,3.43751 0,1.9059 -1.533687,3.43907 -3.439583,3.43907 -1.905897,0 -3.439584,-1.53317 -3.439584,-3.43907 0,-1.55599 1.022577,-2.86299 2.434994,-3.29075 l 0.481107,3.36465 c 0.07713,0.72826 1.177928,0.57015 1.046965,-0.15038 z m -11.5548505,1.40722 c 0.3170864,0.43372 0.5331227,0.94442 0.6185667,1.50068 H 6.8318829 Z"/></g><text x="0" y="40.400001" fill="#000000" font-size="5px" font-weight="bold" font-family="'Helvetica Neue', Helvetica, Arial-Unicode, Arial, Sans-serif">Created by Assyifa Art</text><text x="0" y="45.400001" fill="#000000" font-size="5px" font-weight="bold" font-family="'Helvetica Neue', Helvetica, Arial-Unicode, Arial, Sans-serif">from the Noun Project</text></svg>